# xmcd
#
# Track frame offsets:
#	150
#	13050
#	28354
#	41416
#	54155
#	72807
#	88217
#	99199
#	112961
#	129154
#
# Disc length: 1890 seconds
#
# Revision: 1
# Processed by: cddbd v1.5.2PL0 Copyright (c) Steve Scherf et al.
# Submitted via: audiograbber 1.83.01
#
DISCID=7607600a
DTITLE=Don Williams - I Believe In You
DYEAR=1980
DGENRE=Country
TTITLE0=Falling Again
TTITLE1=It's Good To See You
TTITLE2=I Want You Back Again
TTITLE3=Simple Song
TTITLE4=I Believe In You
TTITLE5=Ain't It Amazing
TTITLE6=Just Enough Love (For One Women)
TTITLE7=I Keep Putting Off Getting Over You
TTITLE8=Rainy Nights And Memories
TTITLE9=Slowly But Surely
EXTD=
EXTT0=
EXTT1=
EXTT2=
EXTT3=
EXTT4=
EXTT5=
EXTT6=
EXTT7=
EXTT8=
EXTT9=
PLAYORDER=
